<svg width="1440" height="890" viewBox="0 0 1440 890" fill="none" xmlns="http://www.w3.org/2000/svg">
<g clip-path="url(#clip0_20_180)">
<rect x="0.5" y="-132.5" width="1439" height="1048" stroke="#EDEDFB"/>
<line x1="197" y1="339.5" x2="1242" y2="339.5" stroke="#EDEDFB"/>
<line x1="81" y1="659.5" x2="1358" y2="659.5" stroke="#EDEDFB"/>
<line x1="81" y1="595.5" x2="1358" y2="595.5" stroke="#EDEDFB"/>
<line x1="197" y1="275.5" x2="1242" y2="275.5" stroke="#EDEDFB"/>
<line x1="197" y1="531.5" x2="1242" y2="531.5" stroke="#EDEDFB"/>
<line x1="81" y1="808.5" x2="1358" y2="808.5" stroke="#EDEDFB"/>
<line x1="81" y1="213.5" x2="1358" y2="213.5" stroke="#EDEDFB"/>
<line y1="-0.5" x2="1277" y2="-0.5" transform="matrix(1 -9.26334e-08 -8.25052e-08 -1 81 112)" stroke="#EDEDFB"/>
<line x1="197" y1="467.5" x2="1242" y2="467.5" stroke="#EDEDFB"/>
<line x1="81" y1="770.5" x2="1358" y2="770.5" stroke="#EDEDFB"/>
<line x1="197" y1="403.5" x2="1242" y2="403.5" stroke="#EDEDFB"/>
<line x1="81" y1="733.5" x2="1358" y2="733.5" stroke="#EDEDFB"/>
<line y1="-0.5" x2="1440" y2="-0.5" transform="matrix(1 -8.74228e-08 -8.74228e-08 -1 0 32.0001)" stroke="#EDEDFB"/>
<line y1="-0.5" x2="1440" y2="-0.5" transform="matrix(1 -8.74228e-08 -8.74228e-08 -1 0 853)" stroke="#EDEDFB"/>
<rect x="0.5" y="970.5" width="1050" height="1440" transform="rotate(-90 0.5 970.5)" stroke="#EDEDFB"/>
<line x1="421.5" y1="971" x2="421.5" y2="39.9999" stroke="#EDEDFB"/>
<line x1="731.5" y1="849" x2="731.5" y2="35" stroke="#EDEDFB"/>
<line x1="947.5" y1="802" x2="947.5" y2="94" stroke="#EDEDFB"/>
<line x1="553.5" y1="849" x2="553.5" y2="58" stroke="#EDEDFB"/>
<line x1="310.5" y1="849" x2="310.5" y2="40" stroke="#EDEDFB"/>
<line x1="596.5" y1="849" x2="596.5" y2="58" stroke="#EDEDFB"/>
<line x1="1180.5" y1="971" x2="1180.5" y2="40" stroke="#EDEDFB"/>
<line x1="211.5" y1="881" x2="211.5" y2="11" stroke="#EDEDFB"/>
<line x1="267.5" y1="881" x2="267.5" y2="11" stroke="#EDEDFB"/>
<line x1="1118.5" y1="1194" x2="1118.5" y2="83" stroke="#EDEDFB"/>
<line x1="1327.5" y1="1194" x2="1327.5" y2="-15" stroke="#EDEDFB"/>
<line x1="112.5" y1="1194" x2="112.5" y2="-15" stroke="#EDEDFB"/>
<line x1="903.5" y1="849" x2="903.5" y2="28" stroke="#EDEDFB"/>
<line x1="1041.5" y1="1051" x2="1041.5" y2="52" stroke="#EDEDFB"/>
<g clip-path="url(#clip1_20_180)">
<mask id="path-31-inside-1_20_180" fill="white">
<path d="M1307 660H1470V1187H1307V660Z"/>
</mask>
<line x1="1246.65" y1="705.124" x2="1442.13" y2="613.97" stroke="#EDEDFB"/>
<line x1="1246.65" y1="936.512" x2="1442.13" y2="845.359" stroke="#EDEDFB"/>
<line x1="1246.65" y1="820.818" x2="1442.13" y2="729.665" stroke="#EDEDFB"/>
<line x1="1246.65" y1="721.651" x2="1442.13" y2="630.498" stroke="#EDEDFB"/>
<line x1="1246.65" y1="953.04" x2="1442.13" y2="861.887" stroke="#EDEDFB"/>
<line x1="1246.65" y1="837.346" x2="1442.13" y2="746.192" stroke="#EDEDFB"/>
<line x1="1246.65" y1="738.179" x2="1442.13" y2="647.026" stroke="#EDEDFB"/>
<line x1="1246.65" y1="969.568" x2="1442.13" y2="878.414" stroke="#EDEDFB"/>
<line x1="1246.65" y1="853.874" x2="1442.13" y2="762.72" stroke="#EDEDFB"/>
<line x1="1246.65" y1="754.707" x2="1442.13" y2="663.553" stroke="#EDEDFB"/>
<line x1="1246.65" y1="870.401" x2="1442.13" y2="779.248" stroke="#EDEDFB"/>
<line x1="1246.65" y1="771.235" x2="1442.13" y2="680.081" stroke="#EDEDFB"/>
<line x1="1246.65" y1="886.929" x2="1442.13" y2="795.776" stroke="#EDEDFB"/>
<line x1="1246.65" y1="787.763" x2="1442.13" y2="696.609" stroke="#EDEDFB"/>
<line x1="1246.65" y1="903.457" x2="1442.13" y2="812.303" stroke="#EDEDFB"/>
<line x1="1246.65" y1="804.29" x2="1442.13" y2="713.137" stroke="#EDEDFB"/>
<line x1="1246.65" y1="919.985" x2="1442.13" y2="828.831" stroke="#EDEDFB"/>
</g>
<path d="M1307 660V661H1470V660V659H1307V660ZM1470 1187V1186H1307V1187V1188H1470V1187Z" fill="#EDEDFB" mask="url(#path-31-inside-1_20_180)"/>
<g clip-path="url(#clip2_20_180)">
<mask id="path-50-inside-2_20_180" fill="white">
<path d="M-9 214H142V-275H-9V214Z"/>
</mask>
<line y1="-0.5" x2="215.688" y2="-0.5" transform="matrix(0.906308 0.422618 0.422618 -0.906308 -69.1388 168.423)" stroke="#EDEDFB"/>
<line y1="-0.5" x2="215.688" y2="-0.5" transform="matrix(0.906308 0.422618 0.422618 -0.906308 -69.1388 -62.9656)" stroke="#EDEDFB"/>
<line y1="-0.5" x2="215.688" y2="-0.5" transform="matrix(0.906308 0.422618 0.422618 -0.906308 -69.1388 52.7288)" stroke="#EDEDFB"/>
<line y1="-0.5" x2="215.688" y2="-0.5" transform="matrix(0.906308 0.422618 0.422618 -0.906308 -69.1388 151.896)" stroke="#EDEDFB"/>
<line y1="-0.5" x2="215.688" y2="-0.5" transform="matrix(0.906308 0.422618 0.422618 -0.906308 -69.1388 -79.4933)" stroke="#EDEDFB"/>
<line y1="-0.5" x2="215.688" y2="-0.5" transform="matrix(0.906308 0.422618 0.422618 -0.906308 -69.1388 36.201)" stroke="#EDEDFB"/>
<line y1="-0.5" x2="215.688" y2="-0.5" transform="matrix(0.906308 0.422618 0.422618 -0.906308 -69.1388 135.368)" stroke="#EDEDFB"/>
<line y1="-0.5" x2="215.688" y2="-0.5" transform="matrix(0.906308 0.422618 0.422618 -0.906308 -69.1388 19.6732)" stroke="#EDEDFB"/>
<line y1="-0.5" x2="215.688" y2="-0.5" transform="matrix(0.906308 0.422618 0.422618 -0.906308 -69.1388 118.84)" stroke="#EDEDFB"/>
<line y1="-0.5" x2="215.688" y2="-0.5" transform="matrix(0.906308 0.422618 0.422618 -0.906308 -69.1388 3.14551)" stroke="#EDEDFB"/>
<line y1="-0.5" x2="215.688" y2="-0.5" transform="matrix(0.906308 0.422618 0.422618 -0.906308 -69.1388 102.312)" stroke="#EDEDFB"/>
<line y1="-0.5" x2="215.688" y2="-0.5" transform="matrix(0.906308 0.422618 0.422618 -0.906308 -69.1388 -13.3822)" stroke="#EDEDFB"/>
<line y1="-0.5" x2="215.688" y2="-0.5" transform="matrix(0.906308 0.422618 0.422618 -0.906308 -69.1388 85.7843)" stroke="#EDEDFB"/>
<line y1="-0.5" x2="215.688" y2="-0.5" transform="matrix(0.906308 0.422618 0.422618 -0.906308 -69.1388 -29.91)" stroke="#EDEDFB"/>
<line y1="-0.5" x2="215.688" y2="-0.5" transform="matrix(0.906308 0.422618 0.422618 -0.906308 -69.1388 69.2566)" stroke="#EDEDFB"/>
<line y1="-0.5" x2="215.688" y2="-0.5" transform="matrix(0.906308 0.422618 0.422618 -0.906308 -69.1388 -46.4377)" stroke="#EDEDFB"/>
</g>
<path d="M-9 214V213H142V214V215H-9V214ZM142 -275V-274H-9V-275V-276H142V-275Z" fill="#EDEDFB" mask="url(#path-50-inside-2_20_180)"/>
</g>
<defs>
<clipPath id="clip0_20_180">
<rect width="1441" height="890" fill="white"/>
</clipPath>
<clipPath id="clip1_20_180">
<path d="M1307 660H1470V1187H1307V660Z" fill="white"/>
</clipPath>
<clipPath id="clip2_20_180">
<path d="M-9 214H142V-275H-9V214Z" fill="white"/>
</clipPath>
</defs>
</svg>
